<?xml version="1.0" encoding="UTF-8" standalone="no"?>
<svg
   xmlns:dc="http://purl.org/dc/elements/1.1/"
   xmlns:cc="http://creativecommons.org/ns#"
   xmlns:rdf="http://www.w3.org/1999/02/22-rdf-syntax-ns#"
   xmlns:svg="http://www.w3.org/2000/svg"
   xmlns="http://www.w3.org/2000/svg"
   id="svg8"
   version="1.1"
   viewBox="0 0 6.3499999 6.3500002"
   height="24"
   width="24">
  <defs
     id="defs2" />
  <metadata
     id="metadata5">
    <rdf:RDF>
      <cc:Work
         rdf:about="">
        <dc:format>image/svg+xml</dc:format>
        <dc:type
           rdf:resource="http://purl.org/dc/dcmitype/StillImage" />
        <dc:title></dc:title>
      </cc:Work>
    </rdf:RDF>
  </metadata>
  <g
     transform="translate(0,-290.64998)"
     id="layer1">
    <path
       id="center_point-6"
       d="m 3.1891487,293.64869 a 0.17589757,0.17748105 0 0 0 -0.1759165,0.1775 0.17589757,0.17748105 0 0 0 0.1759165,0.17746 0.17589757,0.17748105 0 0 0 0.1758859,-0.17746 0.17589757,0.17748105 0 0 0 -0.1758859,-0.1775 z"
       style="fill:#f9f9f9;fill-opacity:1;stroke:#f9f9f9;stroke-width:0.1183631;stroke-miterlimit:4;stroke-dasharray:none;stroke-opacity:1" />
    <path
       id="path5605"
       transform="matrix(0.26458333,0,0,0.26458333,0,290.64998)"
       d="M 16.876953 1.2578125 L 16.412109 2.2890625 C 17.510948 2.8051146 18.545053 3.5147105 19.451172 4.4414062 C 23.540222 8.6233023 23.540248 15.386426 19.451172 19.568359 C 18.545267 20.494834 17.510878 21.202785 16.412109 21.71875 L 16.878906 22.753906 C 18.09533 22.183673 19.239464 21.400109 20.240234 20.376953 C 24.757769 15.756821 24.757769 8.2548601 20.240234 3.6347656 C 19.239027 2.6108195 18.093962 1.8281125 16.876953 1.2578125 z M 7.203125 1.265625 C 5.9954561 1.8345003 4.85962 2.6135574 3.8652344 3.6308594 L 3.8652344 3.6269531 C -0.65230049 8.2470854 -0.65230049 15.760727 3.8652344 20.380859 C 4.8591821 21.397372 5.9940888 22.17728 7.2011719 22.746094 L 7.6699219 21.707031 C 6.5818506 21.19201 5.5582208 20.486815 4.6601562 19.568359 C 0.57108 15.386426 0.57110646 8.6233023 4.6601562 4.4414062 C 5.5582266 3.522942 6.5816398 2.8178182 7.6699219 2.3027344 L 7.203125 1.265625 z M 14.705078 6.0839844 L 14.240234 7.1152344 C 14.819786 7.3750953 15.365001 7.7380481 15.841797 8.2148438 C 17.938931 10.311952 17.938904 13.697813 15.841797 15.794922 C 15.365445 16.271274 14.821163 16.634581 14.242188 16.894531 L 14.703125 17.919922 C 15.405208 17.606199 16.065169 17.169212 16.640625 16.59375 C 19.171029 14.063356 19.176911 9.9425408 16.646484 7.4121094 C 16.070223 6.8358501 15.408962 6.397627 14.705078 6.0839844 z M 9.3789062 6.0996094 C 8.6856443 6.4131897 8.0337028 6.8474904 7.4648438 7.4160156 C 4.9344395 9.9464093 4.9344391 14.063356 7.4648438 16.59375 C 8.0339728 17.162879 8.685524 17.597037 9.3789062 17.910156 L 9.8398438 16.882812 C 9.2698272 16.623503 8.7334706 16.264723 8.2636719 15.794922 C 6.1665647 13.697813 6.1665647 10.311952 8.2636719 8.2148438 C 8.7339081 7.7446072 9.2712089 7.386181 9.8417969 7.1269531 L 9.3789062 6.0996094 z "
       style="color:#000000;font-style:normal;font-variant:normal;font-weight:normal;font-stretch:normal;font-size:medium;line-height:normal;font-family:sans-serif;font-variant-ligatures:normal;font-variant-position:normal;font-variant-caps:normal;font-variant-numeric:normal;font-variant-alternates:normal;font-feature-settings:normal;text-indent:0;text-align:start;text-decoration:none;text-decoration-line:none;text-decoration-style:solid;text-decoration-color:#000000;letter-spacing:normal;word-spacing:normal;text-transform:none;writing-mode:lr-tb;direction:ltr;text-orientation:mixed;dominant-baseline:auto;baseline-shift:baseline;text-anchor:start;white-space:normal;shape-padding:0;clip-rule:nonzero;display:inline;overflow:visible;visibility:visible;opacity:1;isolation:auto;mix-blend-mode:normal;color-interpolation:sRGB;color-interpolation-filters:linearRGB;solid-color:#000000;solid-opacity:1;vector-effect:none;fill:#f9f9f9;fill-opacity:1;fill-rule:nonzero;stroke:none;stroke-width:1.13385832;stroke-linecap:round;stroke-linejoin:round;stroke-miterlimit:4;stroke-dasharray:none;stroke-dashoffset:0;stroke-opacity:1;color-rendering:auto;image-rendering:auto;shape-rendering:auto;text-rendering:auto;enable-background:accumulate" />
  </g>
</svg>
