<?xml version="1.0" encoding="UTF-8" standalone="no"?>
<!-- Created with Inkscape (http://www.inkscape.org/) -->

<svg
   xmlns:dc="http://purl.org/dc/elements/1.1/"
   xmlns:cc="http://creativecommons.org/ns#"
   xmlns:rdf="http://www.w3.org/1999/02/22-rdf-syntax-ns#"
   xmlns:svg="http://www.w3.org/2000/svg"
   xmlns="http://www.w3.org/2000/svg"
   xmlns:sodipodi="http://sodipodi.sourceforge.net/DTD/sodipodi-0.dtd"
   xmlns:inkscape="http://www.inkscape.org/namespaces/inkscape"
   width="24"
   height="24"
   viewBox="0 0 6.3499999 6.3500002"
   version="1.1"
   id="svg8"
   inkscape:version="0.92.1 r15371"
   sodipodi:docname="Pointer.svg"
   inkscape:export-filename="C:\Users\lucad\Documents\Projects\glaze\src\main\resources\images\pointer_radar_idle.png"
   inkscape:export-xdpi="103.10712"
   inkscape:export-ydpi="103.10712">
  <defs
     id="defs2" />
  <sodipodi:namedview
     id="base"
     pagecolor="#ffffff"
     bordercolor="#666666"
     borderopacity="1.0"
     inkscape:pageopacity="0.0"
     inkscape:pageshadow="2"
     inkscape:zoom="16"
     inkscape:cx="23.038657"
     inkscape:cy="9.5837005"
     inkscape:document-units="mm"
     inkscape:current-layer="layer1"
     showgrid="false"
     inkscape:window-width="1920"
     inkscape:window-height="1001"
     inkscape:window-x="-9"
     inkscape:window-y="-9"
     inkscape:window-maximized="1"
     units="px"
     showguides="true"
     inkscape:guide-bbox="true" />
  <metadata
     id="metadata5">
    <rdf:RDF>
      <cc:Work
         rdf:about="">
        <dc:format>image/svg+xml</dc:format>
        <dc:type
           rdf:resource="http://purl.org/dc/dcmitype/StillImage" />
        <dc:title />
      </cc:Work>
    </rdf:RDF>
  </metadata>
  <g
     inkscape:label="Layer 1"
     inkscape:groupmode="layer"
     id="layer1"
     transform="translate(0,-290.64998)">
    <path
       style="fill:#b3b3b3;fill-opacity:1;stroke:#b3b3b3;stroke-width:0.1183631;stroke-miterlimit:4;stroke-dasharray:none;stroke-opacity:1"
       d="m 3.1891487,293.64869 a 0.17589757,0.17748105 0 0 0 -0.1759165,0.1775 0.17589757,0.17748105 0 0 0 0.1759165,0.17746 0.17589757,0.17748105 0 0 0 0.1758859,-0.17746 0.17589757,0.17748105 0 0 0 -0.1758859,-0.1775 z"
       id="center_point-6"
       inkscape:connector-curvature="0"
       inkscape:export-xdpi="103"
       inkscape:export-ydpi="103" />
    <path
       style="color:#000000;font-style:normal;font-variant:normal;font-weight:normal;font-stretch:normal;font-size:medium;line-height:normal;font-family:sans-serif;font-variant-ligatures:normal;font-variant-position:normal;font-variant-caps:normal;font-variant-numeric:normal;font-variant-alternates:normal;font-feature-settings:normal;text-indent:0;text-align:start;text-decoration:none;text-decoration-line:none;text-decoration-style:solid;text-decoration-color:#000000;letter-spacing:normal;word-spacing:normal;text-transform:none;writing-mode:lr-tb;direction:ltr;text-orientation:mixed;dominant-baseline:auto;baseline-shift:baseline;text-anchor:start;white-space:normal;shape-padding:0;clip-rule:nonzero;display:inline;overflow:visible;visibility:visible;opacity:1;isolation:auto;mix-blend-mode:normal;color-interpolation:sRGB;color-interpolation-filters:linearRGB;solid-color:#000000;solid-opacity:1;vector-effect:none;fill:#b3b3b3;fill-opacity:1;fill-rule:nonzero;stroke:none;stroke-width:1.51181102;stroke-linecap:round;stroke-linejoin:round;stroke-miterlimit:4;stroke-dasharray:none;stroke-dashoffset:0;stroke-opacity:1;color-rendering:auto;image-rendering:auto;shape-rendering:auto;text-rendering:auto;enable-background:accumulate"
       d="M 19.199219 4.3203125 L 18.130859 5.3886719 C 18.198592 5.4537843 18.269726 5.5123918 18.335938 5.5800781 C 21.812118 9.1351773 21.812144 14.870644 18.335938 18.425781 C 18.269389 18.493842 18.196992 18.551729 18.128906 18.617188 L 19.201172 19.689453 C 19.26437 19.627986 19.332509 19.575127 19.394531 19.511719 C 23.442017 15.372342 23.44199 8.6393763 19.394531 4.5 C 19.331934 4.435981 19.263008 4.3823494 19.199219 4.3203125 z M 4.8730469 4.3535156 C 4.8217498 4.403888 4.7673128 4.4483368 4.7167969 4.5 C 0.6703709 8.6394662 0.66381059 15.376563 4.7109375 19.515625 C 4.7611401 19.566968 4.8162126 19.610089 4.8671875 19.660156 L 5.9394531 18.587891 C 5.8836098 18.533595 5.8243288 18.485754 5.7695312 18.429688 C 2.2933235 14.87455 2.29335 9.1274026 5.7695312 5.5722656 L 5.7695312 5.5761719 C 5.8240162 5.5204498 5.8839344 5.473895 5.9394531 5.4199219 L 4.8730469 4.3535156 z M 16.332031 7.1875 L 15.265625 8.2539062 C 15.361584 8.3363949 15.457834 8.4187028 15.548828 8.5097656 C 17.484889 10.445829 17.480998 13.561984 15.544922 15.498047 C 15.454586 15.588383 15.358891 15.670047 15.263672 15.751953 L 16.333984 16.822266 C 16.428717 16.738064 16.524481 16.657161 16.615234 16.566406 C 19.129016 14.052642 19.129042 9.9571608 16.615234 7.4433594 C 16.524135 7.3522604 16.427142 7.2719906 16.332031 7.1875 z M 7.7382812 7.21875 C 7.6553111 7.2935421 7.570107 7.3634874 7.4902344 7.4433594 C 4.9764532 9.9571608 4.9764532 14.052605 7.4902344 16.566406 C 7.5697952 16.645967 7.6556483 16.714538 7.7382812 16.789062 L 8.8066406 15.720703 C 8.7237488 15.648047 8.6396702 15.57717 8.5605469 15.498047 C 6.624513 13.562022 6.624513 10.449697 8.5605469 8.5136719 C 8.6403278 8.4338908 8.7249732 8.3622927 8.8085938 8.2890625 L 7.7382812 7.21875 z "
       transform="matrix(0.26458333,0,0,0.26458333,0,290.64998)"
       id="path5605" />
  </g>
</svg>
