<?xml version="1.0" encoding="UTF-8" standalone="no"?>
<svg
   xmlns:dc="http://purl.org/dc/elements/1.1/"
   xmlns:cc="http://creativecommons.org/ns#"
   xmlns:rdf="http://www.w3.org/1999/02/22-rdf-syntax-ns#"
   xmlns:svg="http://www.w3.org/2000/svg"
   xmlns="http://www.w3.org/2000/svg"
   height="40"
   width="40"
   xml:space="preserve"
   viewBox="0 0 40 40"
   y="0px"
   x="0px"
   id="Layer_1"
   version="1.1"><metadata
     id="metadata4534"><rdf:RDF><cc:Work
         rdf:about=""><dc:format>image/svg+xml</dc:format><dc:type
           rdf:resource="http://purl.org/dc/dcmitype/StillImage" /><dc:title></dc:title></cc:Work></rdf:RDF></metadata><defs
     id="defs4532" /><g
     transform="matrix(0.07761756,0,0,0.07761756,0.15463666,0.19798747)"
     style="fill:#cccccc"
     id="g4491"><g
       style="fill:#cccccc"
       id="g4489"><path
         style="fill:#cccccc"
         id="path4487"
         d="M 445.217,0 H 214.179 C 200.8,0 188.223,5.21 178.763,14.67 L 64.758,128.672 c -9.461,9.46 -14.671,22.038 -14.671,35.417 v 331.215 c 0,9.22 7.475,16.696 16.696,16.696 h 378.435 c 9.22,0 16.696,-7.475 16.696,-16.696 V 16.696 C 461.913,7.475 454.438,0 445.217,0 Z M 183.652,57.002 v 76.563 h -76.564 z m 244.87,421.607 H 83.478 V 166.957 h 116.87 c 9.22,0 16.696,-7.475 16.696,-16.696 V 33.391 h 211.478 z" /></g></g><g
     transform="translate(0,-472)"
     id="g4499" /><g
     transform="translate(0,-472)"
     id="g4501" /><g
     transform="translate(0,-472)"
     id="g4503" /><g
     transform="translate(0,-472)"
     id="g4505" /><g
     transform="translate(0,-472)"
     id="g4507" /><g
     transform="translate(0,-472)"
     id="g4509" /><g
     transform="translate(0,-472)"
     id="g4511" /><g
     transform="translate(0,-472)"
     id="g4513" /><g
     transform="translate(0,-472)"
     id="g4515" /><g
     transform="translate(0,-472)"
     id="g4517" /><g
     transform="translate(0,-472)"
     id="g4519" /><g
     transform="translate(0,-472)"
     id="g4521" /><g
     transform="translate(0,-472)"
     id="g4523" /><g
     transform="translate(0,-472)"
     id="g4525" /><g
     transform="translate(0,-472)"
     id="g4527" /></svg>